<svg width="48" height="48" viewBox="0 0 48 48" fill="none" xmlns="http://www.w3.org/2000/svg">
  <circle cx="24" cy="24" r="23" fill="#FF6B35" stroke="#D64919" stroke-width="2"/>
  <g filter="url(#glow)">
    <path d="M15 18C15 16.8954 15.8954 16 17 16H31C32.1046 16 33 16.8954 33 18V19C33 19.5523 32.5523 20 32 20H16C15.4477 20 15 19.5523 15 19V18Z" fill="#FFD4A3"/>
    <path d="M14 20H34L32 32C31.7239 33.6568 30.2761 35 28.5928 35H19.4072C17.7239 35 16.2761 33.6568 16 32L14 20Z" fill="#FFA668"/>
    <circle cx="20" cy="25" r="2.5" fill="#D64919"/>
    <circle cx="28" cy="27" r="2" fill="#D64919"/>
    <circle cx="24" cy="30" r="1.5" fill="#D64919"/>
    <path d="M18 20C18 20 19 22 20 22C21 22 22 20 22 20" stroke="#FFE5CC" stroke-width="1.5" stroke-linecap="round"/>
    <path d="M26 20C26 20 27 22 28 22C29 22 30 20 30 20" stroke="#FFE5CC" stroke-width="1.5" stroke-linecap="round"/>
  </g>
  <defs>
    <filter id="glow" x="10" y="12" width="28" height="27" filterUnits="userSpaceOnUse">
      <feGaussianBlur stdDeviation="2" result="coloredBlur"/>
      <feMerge>
        <feMergeNode in="coloredBlur"/>
        <feMergeNode in="SourceGraphic"/>
      </feMerge>
    </filter>
  </defs>
</svg>